<svg xmlns="http://www.w3.org/2000/svg" height="48" viewBox="0 -960 960 960" width="48"><path d="M479.761-132q-71.261 0-135.06-27.158-63.798-27.158-111.592-74.701-47.793-47.544-74.451-111.092Q132-408.5 132-480.761 132-553 158.658-616.42q26.658-63.421 74.451-110.545 47.794-47.125 111.592-74.08Q408.5-828 479.761-828 552-828 615.42-801.037q63.421 26.962 111.295 74.099 47.875 47.138 74.58 110.576Q828-552.925 828-481q0 72.5-26.705 136.049-26.705 63.548-74.58 111.092-47.874 47.543-111.295 74.701Q552-132 479.761-132Zm.239-20q41.609-46.289 66.055-94.645Q570.5-295 587.5-357h-214q16 66.5 41.445 113.855Q440.391-195.789 480-152Zm-29-2q-33-34-60.25-89.5T350.408-357H176.5q38.5 88 109.25 140T451-154Zm59 0q89-8 161.75-62.5T784.5-357H610.592Q592-297 565-242.5T510-154ZM170.5-379H346q-5-28-7-53.75T337-481q0-22.5 2-47.75t7-52.25H170.5q-8.5 22.5-12.5 48.338-4 25.837-4 51.662 0 26.825 4 52.663Q162-402.5 170.5-379Zm198 0h224q4-29 6.25-53.087Q601-456.175 601-481q0-23.825-2.25-47.412Q596.5-552 592.5-581h-224q-5 29-7.25 52.588Q359-504.825 359-481q0 24.825 2.25 48.913Q363.5-408 368.5-379Zm245.5 0h176.5q7.5-23.5 11.5-49.337 4-25.838 4-52.663 0-25.825-4-51.662Q798-558.5 790.5-581H615q4 30 6 54.75t2 45.25q0 22.5-2 47.75T614-379Zm-3.408-224H784.5Q745-691.5 674.75-744.5T509-807q33 39 59.75 92.5T610.592-603ZM373.5-603h215q-17-62-43.695-113.355Q518.109-767.711 480-808q-36.609 37.789-62.555 86.895Q391.5-672 373.5-603Zm-197 0h173.908Q365-661 391.25-713.75T450-807q-95 11-165.25 62.75T176.5-603Z"/></svg>